# xmcd CD database file
#
# Track frame offsets:
#	150
#	13581
#	25362
#	38642
#	53873
#	70454
#	79984
#	92065
#	102945
#	121025
#	137906
#	155837
#	167467
#	182397
#	196727
#	210908
#	221639
#	240920
#	260800
#	275880
#	291560
#	306640
#	324571
#	337551
#
# Disc length: 4649 seconds
#
# Revision: 0
# Processed by: cddbd v1.5.2PL0 Copyright (c) Steve Scherf et al.
# Submitted via: CDex 1.51
#
DISCID=5e122718
DTITLE=Anita O'Day - Oscar Peterson - Anita Sings for Oscar
DYEAR=2008
DGENRE=Jazz
TTITLE0=Medley: S'Wonderful/They Can't Take That Away from Me
TTITLE1=Love Me or Leave Me
TTITLE2=Old Devil Moon
TTITLE3=Tenderly
TTITLE4=We'll be Together Again
TTITLE5=Stella by Starlight
TTITLE6=Them There Eyes
TTITLE7=Takin' a Chance on Love
TTITLE8=I've Got the World on a String
TTITLE9=You Turned the Tables on Me
TTITLE10=Bewitched, Bothered and Bewildered
TTITLE11=Don't Be That Way
TTITLE12=Let's Face the Music and Dance
TTITLE13=I used to be Color Blind
TTITLE14=Pick Yourself Up
TTITLE15=Let's Begin
TTITLE16=Sweet Georgia Brown
TTITLE17=I Never Had a Chance
TTITLE18=Stompin' at The Savoy
TTITLE19=I Won't Dance
TTITLE20=There's a Lull in My Life
TTITLE21=Man With a Horn
TTITLE22=Stars Fell on Alabama
TTITLE23=The Getaway and The Chase
EXTD=YEAR: 2008
EXTT0=
EXTT1=
EXTT2=
EXTT3=
EXTT4=
EXTT5=
EXTT6=
EXTT7=
EXTT8=
EXTT9=
EXTT10=
EXTT11=
EXTT12=
EXTT13=
EXTT14=
EXTT15=
EXTT16=
EXTT17=
EXTT18=
EXTT19=
EXTT20=
EXTT21=
EXTT22=
EXTT23=
PLAYORDER=
